<?xml version="1.0" encoding="utf-8"?>
<!-- Generator: Adobe Illustrator 23.0.2, SVG Export Plug-In . SVG Version: 6.00 Build 0)  -->
<svg version="1.1" id="Layer_1" xmlns="http://www.w3.org/2000/svg" xmlns:xlink="http://www.w3.org/1999/xlink" x="0px" y="0px"
	 viewBox="0 0 187 40" style="enable-background:new 0 0 187 40;" xml:space="preserve">
<style type="text/css">
	.st0{fill:#009245;}
</style>
<g>
	<g>
		<g>
			<g>
				<line class="st0" x1="25.555" y1="24.048" x2="29.963" y2="16.415"/>
				<path class="st0" d="M25.555,24.626c-0.098,0-0.197-0.025-0.289-0.078c-0.277-0.16-0.371-0.513-0.212-0.79l4.407-7.633
					c0.16-0.277,0.514-0.371,0.79-0.212c0.277,0.16,0.371,0.513,0.212,0.79l-4.407,7.633C25.949,24.522,25.755,24.626,25.555,24.626
					z"/>
			</g>
			<g>
				<g>
					<path class="st0" d="M25.054,22.135c-0.107,0.187-0.302,0.291-0.503,0.291c-0.098,0-0.196-0.024-0.288-0.076l-2.811-1.613
						l-0.008-0.005c-0.256-0.147-0.356-0.455-0.248-0.721c0.028-0.066,0.066-0.128,0.117-0.18c0.003-0.005,0.008-0.009,0.013-0.013
						c0.035-0.033,0.073-0.063,0.117-0.089l0.014-0.008l2.784-1.609c0.278-0.161,0.631-0.065,0.79,0.21
						c0.16,0.277,0.065,0.631-0.212,0.79l-1.929,1.115l1.948,1.118C25.117,21.505,25.212,21.859,25.054,22.135z"/>
					<line class="st0" x1="24.532" y1="18.613" x2="22.311" y2="19.897"/>
				</g>
				<g>
					<line class="st0" x1="24.551" y1="21.848" x2="22.313" y2="20.564"/>
					<path class="st0" d="M21.314,19.832c-0.027,0.029-0.051,0.061-0.073,0.096C21.262,19.894,21.285,19.861,21.314,19.832z"/>
					<path class="st0" d="M21.23,19.943c0.003-0.005,0.008-0.009,0.011-0.015c-0.017,0.027-0.032,0.055-0.044,0.084
						C21.206,19.989,21.217,19.966,21.23,19.943z"/>
					<path class="st0" d="M21.326,19.819c0.035-0.035,0.074-0.065,0.117-0.089C21.399,19.756,21.361,19.786,21.326,19.819z"/>
				</g>
			</g>
			<g>
				<g>
					<path class="st0" d="M33.868,20.599c-0.013,0.016-0.027,0.032-0.041,0.044c-0.035,0.035-0.074,0.065-0.117,0.09l-0.003,0.002
						l-2.817,1.616c-0.09,0.052-0.19,0.076-0.286,0.076c-0.201,0-0.397-0.104-0.503-0.291c-0.16-0.277-0.063-0.631,0.213-0.789
						l1.949-1.118l-1.93-1.115c-0.277-0.16-0.372-0.514-0.212-0.79c0.16-0.275,0.514-0.372,0.79-0.21l2.782,1.606l0.017,0.011
						c0.024,0.014,0.044,0.028,0.065,0.044c0.021,0.016,0.041,0.033,0.058,0.051c0.017,0.019,0.035,0.038,0.049,0.058
						c0.016,0.019,0.028,0.038,0.04,0.058C34.047,20.158,34.016,20.419,33.868,20.599z"/>
					<line class="st0" x1="32.843" y1="19.897" x2="30.622" y2="18.613"/>
				</g>
				<g>
					<line class="st0" x1="32.842" y1="20.564" x2="30.602" y2="21.848"/>
				</g>
			</g>
		</g>
		<g>
			<g>
				<g>
					<line class="st0" x1="24.256" y1="9.172" x2="21.612" y2="7.645"/>
					<path class="st0" d="M25.339,9.792c-0.009,0.017-0.021,0.035-0.033,0.051c-0.046,0.066-0.107,0.123-0.182,0.166l-0.003,0.002
						l-3.242,1.861c-0.092,0.052-0.19,0.076-0.288,0.076c-0.201,0-0.395-0.104-0.503-0.291c-0.158-0.277-0.063-0.631,0.213-0.789
						l2.376-1.363l-2.354-1.358c-0.277-0.16-0.372-0.514-0.212-0.79c0.161-0.277,0.514-0.372,0.79-0.212l3.22,1.861
						c0.006,0.003,0.011,0.006,0.017,0.011c0.017,0.009,0.035,0.022,0.051,0.035c0.021,0.016,0.041,0.033,0.059,0.052
						c0.017,0.017,0.035,0.036,0.049,0.057c0.03,0.04,0.055,0.084,0.074,0.13C25.44,9.455,25.424,9.641,25.339,9.792z"/>
					<path class="st0" d="M25.339,9.792c0,0.002,0,0.003-0.002,0.005c-0.009,0.016-0.019,0.032-0.032,0.046
						C25.318,9.826,25.329,9.809,25.339,9.792z"/>
				</g>
				<g>
					<line class="st0" x1="24.256" y1="9.839" x2="21.589" y2="11.368"/>
					<path class="st0" d="M25.372,9.289c-0.019-0.046-0.044-0.09-0.074-0.13c0.016,0.019,0.028,0.04,0.041,0.06
						C25.351,9.241,25.362,9.265,25.372,9.289z"/>
				</g>
			</g>
			<g>
				<path class="st0" d="M29.373,11.971h-4.168c-0.319,0-0.578-0.259-0.578-0.578c0-0.319,0.259-0.578,0.578-0.578h4.168
					c0.319,0,0.578,0.259,0.578,0.578C29.952,11.712,29.692,11.971,29.373,11.971z"/>
			</g>
		</g>
		<g>
			<g>
				<g>
					<path class="st0" d="M25.124,30.736l-0.003,0.002l-3.242,1.859c-0.092,0.052-0.19,0.077-0.288,0.077
						c-0.201,0-0.395-0.104-0.503-0.291c-0.158-0.277-0.063-0.631,0.213-0.789l2.376-1.363l-2.354-1.36
						c-0.277-0.16-0.372-0.514-0.212-0.79c0.161-0.277,0.514-0.372,0.79-0.21l3.22,1.859c0.006,0.003,0.013,0.006,0.017,0.011
						c0.017,0.009,0.035,0.022,0.051,0.035c0.021,0.016,0.041,0.033,0.059,0.052c0.017,0.017,0.035,0.036,0.049,0.057
						c0.03,0.04,0.055,0.084,0.074,0.13C25.479,30.28,25.378,30.589,25.124,30.736z"/>
					<line class="st0" x1="24.257" y1="29.899" x2="21.612" y2="28.371"/>
				</g>
				<g>
					<line class="st0" x1="24.256" y1="30.567" x2="21.589" y2="32.095"/>
					<path class="st0" d="M25.372,30.015c-0.019-0.046-0.044-0.09-0.074-0.13c0.016,0.019,0.028,0.04,0.041,0.06
						C25.351,29.967,25.362,29.991,25.372,30.015z"/>
				</g>
			</g>
			<g>
				<path class="st0" d="M29.952,32.119c0,0.319-0.259,0.579-0.579,0.579h-4.167c-0.321,0-0.579-0.259-0.579-0.579
					c0-0.319,0.258-0.577,0.579-0.577h4.167C29.693,31.542,29.952,31.8,29.952,32.119z"/>
			</g>
		</g>
		<g>
			<path class="st0" d="M25.71,14.65h-4.338c-0.319,0-0.578-0.259-0.578-0.578c0-0.319,0.259-0.578,0.578-0.578h4.338
				c0.319,0,0.578,0.259,0.578,0.578C26.288,14.391,26.029,14.65,25.71,14.65z"/>
		</g>
		<g>
			<path class="st0" d="M32.844,14.65h-2.41c-0.319,0-0.578-0.259-0.578-0.578c0-0.319,0.259-0.578,0.578-0.578h2.41
				c0.319,0,0.578,0.259,0.578,0.578C33.422,14.391,33.163,14.65,32.844,14.65z"/>
		</g>
		<g>
			<path class="st0" d="M28.602,14.65h-1.157c-0.319,0-0.578-0.259-0.578-0.578c0-0.319,0.259-0.578,0.578-0.578h1.157
				c0.319,0,0.578,0.259,0.578,0.578C29.18,14.391,28.921,14.65,28.602,14.65z"/>
		</g>
		<g>
			<path class="st0" d="M27.348,34.799c0,0.319-0.259,0.579-0.579,0.579H24.36c-0.319,0-0.579-0.259-0.579-0.579
				s0.259-0.579,0.579-0.579h2.409C27.089,34.22,27.348,34.479,27.348,34.799z"/>
		</g>
		<g>
			<path class="st0" d="M22.528,35.377h-1.157c-0.319,0-0.578-0.259-0.578-0.578s0.259-0.578,0.578-0.578h1.157
				c0.319,0,0.578,0.259,0.578,0.578S22.848,35.377,22.528,35.377z"/>
		</g>
		<g>
			<path class="st0" d="M26.963,5.78h-2.41c-0.319,0-0.578-0.259-0.578-0.578s0.259-0.578,0.578-0.578h2.41
				c0.319,0,0.578,0.259,0.578,0.578S27.282,5.78,26.963,5.78z"/>
		</g>
		<g>
			<path class="st0" d="M22.721,5.78h-1.157c-0.319,0-0.578-0.259-0.578-0.578s0.259-0.578,0.578-0.578h1.157
				c0.319,0,0.578,0.259,0.578,0.578S23.041,5.78,22.721,5.78z"/>
		</g>
		<g>
			<path class="st0" d="M25.71,26.797h-4.338c-0.319,0-0.578-0.259-0.578-0.578c0-0.319,0.259-0.578,0.578-0.578h4.338
				c0.319,0,0.578,0.259,0.578,0.578C26.288,26.538,26.029,26.797,25.71,26.797z"/>
		</g>
		<g>
			<path class="st0" d="M32.844,26.797h-2.41c-0.319,0-0.578-0.259-0.578-0.578c0-0.319,0.259-0.578,0.578-0.578h2.41
				c0.319,0,0.578,0.259,0.578,0.578C33.422,26.538,33.163,26.797,32.844,26.797z"/>
		</g>
		<g>
			<path class="st0" d="M28.602,26.797h-1.157c-0.319,0-0.578-0.259-0.578-0.578c0-0.319,0.259-0.578,0.578-0.578h1.157
				c0.319,0,0.578,0.259,0.578,0.578C29.18,26.538,28.921,26.797,28.602,26.797z"/>
		</g>
	</g>
	<g>
		<path class="st0" d="M4.512,26.782c-1.849-1.862-2.02-3.467-0.663-5.683c0.103-0.169,0.155-0.43,0.111-0.62
			c-0.563-2.439-0.11-3.657,1.895-5.01c-0.172-3.205,0.54-4.34,3.299-5.262c0.327-2.45,1.135-3.343,3.442-3.868
			c0.204-0.046,0.412-0.263,0.532-0.455c0.898-1.444,2.387-2.069,3.993-1.647c1.627,0.427,2.62,1.677,2.633,3.406
			c0.02,2.706,0.059,5.414-0.032,8.117c-0.029,0.842-0.453,1.672-0.76,2.726c1.11,1.472,1.179,3.22-0.186,4.958
			c1.33,1.728,1.312,3.448-0.014,5.223c1.133,1.135,1.084,2.594,0.974,4.034c-0.201,2.62-3.184,4.063-5.424,2.629
			c-0.415-0.265-0.696-0.306-1.152-0.089c-1.91,0.906-4.091,0.156-5.131-1.681c-0.153-0.27-0.399-0.586-0.67-0.673
			C4.405,31.931,3.387,29.804,4.512,26.782z M14.79,33.895c0.969,1.097,2.911,0.635,3.438-0.786
			c0.751-2.026-0.034-3.562-2.093-4.153c-0.25-0.072-0.576-0.475-0.561-0.703c0.016-0.228,0.386-0.499,0.659-0.621
			c0.206-0.092,0.529-0.038,0.755,0.057c0.528,0.222,0.894,0.006,1.032-0.443c0.171-0.556,0.349-1.185,0.251-1.733
			c-0.186-1.037-0.914-1.596-1.994-1.73c-0.262-0.033-0.61-0.336-0.686-0.585c-0.057-0.188,0.2-0.606,0.419-0.71
			c0.251-0.12,0.642-0.086,0.921,0.019c0.612,0.231,0.913-0.061,1.17-0.539c0.774-1.436-0.08-3.076-1.769-3.333
			c-0.508-0.077-0.903-0.299-0.758-0.796c0.077-0.265,0.553-0.447,0.882-0.59c0.155-0.067,0.406,0.007,0.584,0.085
			c0.494,0.215,0.798-0.032,0.972-0.427c0.169-0.385,0.332-0.813,0.337-1.224c0.034-2.534,0.032-5.069,0.018-7.603
			c-0.002-0.425-0.054-0.871-0.191-1.271c-0.314-0.917-1.396-1.474-2.382-1.289c-1.003,0.187-1.74,1.117-1.733,2.183
			c0.007,0.992,0.545,1.513,1.638,1.778c0.294,0.071,0.508,0.474,0.759,0.724c-0.288,0.215-0.565,0.594-0.867,0.615
			c-1.206,0.086-2.345-0.831-2.742-2.097c-0.099-0.316-0.174-0.639-0.316-1.164c-0.567,0.411-1.104,0.664-1.447,1.078
			c-0.844,1.018-0.583,2.196,0.526,3.258c0.213,0.204,0.174,0.672,0.251,1.018c-0.355,0.027-0.77,0.182-1.05,0.05
			c-0.367-0.173-0.597-0.614-0.942-0.86c-0.26-0.185-0.642-0.392-0.914-0.333c-1.137,0.247-1.978,1.562-1.79,2.705
			c0.034,0.206,0.152,0.534,0.289,0.567c1.052,0.255,2.111,0.507,3.182,0.641c0.475,0.059,0.897,0.062,0.965,0.603
			c0.078,0.614-0.378,0.854-0.872,0.798c-0.816-0.093-1.629-0.264-2.424-0.476c-0.993-0.264-1.998,0.004-2.65,0.794
			c-0.649,0.786-0.755,1.677-0.303,2.543c0.278-0.072,0.553-0.163,0.835-0.211c1.273-0.22,2.42,0.086,3.337,0.989
			c0.198,0.195,0.11,0.681,0.153,1.033c-0.333,0.011-0.673,0.065-0.998,0.016c-0.174-0.026-0.312-0.244-0.484-0.347
			C7.137,20.785,5.798,21,4.982,21.932c-0.786,0.898-0.837,2.243-0.109,3.186c0.239,0.309,0.446,0.639,0.977,0.401
			c0.18-0.08,0.613,0.129,0.756,0.33c0.113,0.158-0.015,0.515-0.09,0.768c-0.035,0.119-0.203,0.195-0.302,0.3
			c-0.763,0.802-0.995,1.734-0.639,2.786c0.344,1.016,1.069,1.62,2.117,1.816c1.697,0.317,3.188-1.065,3.118-2.907
			c-0.023-0.597,0.053-1.052,0.778-1.055c1.092-0.004,1.913-0.463,2.564-1.348c0.156-0.212,0.627-0.194,0.953-0.281
			c0.056,0.356,0.284,0.839,0.134,1.042c-0.4,0.539-0.927,1.004-1.471,1.409c-0.5,0.372-1.574,1.537-1.868,2.047
			c-0.312,0.541-0.672,1.081-1.12,1.507c-0.42,0.399-0.983,0.647-1.482,0.961c0.754,1.224,1.94,1.641,3.181,1.133
			c1.192-0.489,1.779-1.631,1.478-2.959c-0.119-0.525-0.192-1.045,0.455-1.177c0.641-0.131,0.814,0.426,0.929,0.909
			C15.599,31.891,15.359,32.911,14.79,33.895z"/>
		<path class="st0" d="M14.748,14.981c0.473-0.534,0.915-0.965,1.27-1.458c0.274-0.38,0.504-0.741,1.024-0.469
			c0.556,0.291,0.501,0.779,0.183,1.163c-0.502,0.608-1.03,1.234-1.67,1.674c-0.406,0.279-0.588,0.487-0.615,0.973
			c-0.082,1.504-0.863,2.58-2.177,3.283c-0.422,0.226-0.853,0.306-1.111-0.197c-0.242-0.472-0.01-0.774,0.438-1.036
			c1.71-1,1.973-2.583,0.695-4.102c-0.337-0.401-0.539-0.782-0.083-1.188c0.439-0.391,0.8-0.107,1.108,0.23
			C14.079,14.148,14.322,14.466,14.748,14.981z"/>
		<path class="st0" d="M7.801,26.887c0.021-2.379,1.971-4.165,4.338-3.947c0.328,0.03,0.711,0.128,0.943,0.334
			c0.178,0.158,0.291,0.605,0.191,0.801c-0.102,0.202-0.488,0.325-0.765,0.359c-0.583,0.071-1.215-0.064-1.755,0.11
			c-1.066,0.343-1.65,1.423-1.552,2.599c0.044,0.529,0.298,1.226-0.509,1.291c-0.845,0.068-0.825-0.694-0.891-1.289
			C7.794,27.06,7.802,26.973,7.801,26.887z"/>
	</g>
</g>
<g>
	<path d="M53.062,25.469c0,0.182-0.085,0.272-0.255,0.272h-3.111c-0.17,0-0.255-0.103-0.255-0.308c0-0.592,0.021-1.479,0.065-2.663
		s0.066-2.072,0.066-2.664c0-0.17-0.026-0.261-0.079-0.272c-0.064,0.035-0.457,0.94-1.178,2.716
		c-0.422,1.043-0.844,2.083-1.266,3.12c-0.059,0.135-0.132,0.214-0.22,0.237c-0.029,0.006-0.146,0.009-0.352,0.009
		c-0.305,0-0.486-0.059-0.545-0.176c-0.316-0.645-0.732-1.582-1.248-2.813c-0.551-1.301-0.964-2.242-1.239-2.822
		c-0.012-0.029-0.038-0.062-0.079-0.097c-0.041,0.053-0.062,0.138-0.062,0.255c0,0.574,0.015,1.436,0.044,2.584
		s0.044,2.01,0.044,2.584c0,0.205-0.082,0.308-0.246,0.308h-2.936c-0.117,0-0.189-0.02-0.216-0.058s-0.039-0.104-0.039-0.197
		c0-0.639,0.03-1.599,0.092-2.879s0.093-2.24,0.093-2.878c0-0.68-0.029-1.954-0.088-3.823c-0.006-0.486-0.032-1.21-0.079-2.171
		l-0.009-0.149c-0.006-0.117,0.117-0.176,0.369-0.176c0.322,0,0.806-0.01,1.45-0.031s1.128-0.031,1.45-0.031
		c0.064,0,0.155,0.123,0.272,0.369l2.566,5.634c0.182,0.381,0.334,0.571,0.457,0.571c0.064,0,0.202-0.22,0.413-0.659
		c0.592-1.23,1.468-3.085,2.628-5.563c0.1-0.229,0.208-0.343,0.325-0.343c0.17,0,0.426,0.009,0.769,0.026s0.603,0.026,0.778,0.026
		c0.146,0,0.37-0.015,0.672-0.044s0.526-0.044,0.673-0.044c0.176,0,0.264,0.07,0.264,0.211c0,0.691-0.025,1.724-0.075,3.098
		s-0.074,2.407-0.074,3.098c0,0.639,0.026,1.597,0.079,2.875S53.062,24.836,53.062,25.469z"/>
	<path d="M66.904,19.588c0,1.829-0.583,3.361-1.749,4.597c-1.189,1.254-2.695,1.881-4.518,1.881c-1.811,0-3.313-0.633-4.509-1.898
		c-1.172-1.236-1.758-2.763-1.758-4.58c0-1.822,0.586-3.354,1.758-4.597c1.195-1.271,2.698-1.907,4.509-1.907
		c1.799,0,3.299,0.636,4.5,1.907C66.315,16.246,66.904,17.778,66.904,19.588z M63.573,19.571c0-0.879-0.267-1.626-0.8-2.241
		c-0.557-0.645-1.269-0.967-2.136-0.967c-0.826,0-1.526,0.334-2.101,1.002c-0.557,0.645-0.835,1.386-0.835,2.224
		c0,0.896,0.261,1.644,0.782,2.242c0.551,0.627,1.269,0.94,2.153,0.94c0.826,0,1.529-0.331,2.109-0.993
		C63.298,21.145,63.573,20.409,63.573,19.571z"/>
	<path d="M80.009,25.469c0,0.123-0.026,0.199-0.079,0.229c-0.023,0.018-0.105,0.032-0.246,0.044
		c-0.357,0.035-0.861,0.053-1.512,0.053c-0.92,0-1.461-0.018-1.622-0.053s-0.241-0.114-0.241-0.237c0-0.463,0.021-1.159,0.065-2.088
		s0.066-1.624,0.066-2.087c0-0.229-0.064-0.361-0.193-0.396c-0.199-0.047-0.908-0.07-2.127-0.07c-1.225,0-1.939,0.023-2.145,0.07
		c-0.129,0.029-0.193,0.162-0.193,0.396c0,0.457,0.015,1.141,0.044,2.052s0.044,1.596,0.044,2.053c0,0.176-0.079,0.278-0.237,0.308
		c-0.188,0.035-0.738,0.053-1.652,0.053c-0.791,0-1.295-0.018-1.512-0.053c-0.17-0.029-0.255-0.12-0.255-0.272
		c0-0.633,0.03-1.588,0.092-2.865s0.093-2.236,0.093-2.875c0-0.68-0.029-1.701-0.088-3.063s-0.088-2.383-0.088-3.063
		c0-0.129,0.062-0.193,0.185-0.193c0.182,0,0.455,0.009,0.821,0.026s0.641,0.026,0.822,0.026c0.188,0,0.47-0.009,0.848-0.026
		s0.661-0.026,0.849-0.026c0.1,0,0.149,0.053,0.149,0.158c0,0.439-0.032,1.097-0.097,1.973s-0.097,1.534-0.097,1.973
		c0,0.205,0.056,0.325,0.167,0.36c0.152,0.047,0.902,0.07,2.25,0.07c1.254,0,1.98-0.023,2.18-0.07
		c0.141-0.035,0.211-0.155,0.211-0.36c0-0.422-0.021-1.059-0.062-1.912s-0.062-1.493-0.062-1.92c0-0.182,0.073-0.272,0.22-0.272
		c0.17,0,0.429,0.009,0.777,0.026s0.611,0.026,0.787,0.026c0.17,0,0.429-0.009,0.777-0.026s0.611-0.026,0.787-0.026
		c0.17,0,0.255,0.07,0.255,0.211c0,0.674-0.028,1.69-0.084,3.05s-0.083,2.379-0.083,3.059c0,0.639,0.03,1.597,0.092,2.875
		S80.009,24.836,80.009,25.469z"/>
	<path d="M93.219,25.521c0,0.105-0.073,0.179-0.22,0.22c-0.176,0.047-0.721,0.07-1.635,0.07c-0.838,0-1.377-0.023-1.617-0.07
		c-0.199-0.041-0.325-0.173-0.378-0.396c-0.199-0.844-0.354-1.295-0.466-1.354c-0.094-0.041-0.879-0.062-2.355-0.062
		c-0.996,0-1.526,0.026-1.591,0.079c-0.1,0.094-0.211,0.407-0.334,0.94c-0.111,0.486-0.246,0.75-0.404,0.791
		c-0.199,0.047-0.867,0.07-2.004,0.07c-0.896,0-1.345-0.085-1.345-0.255c0-0.152,0.662-2.024,1.986-5.617
		c1.436-3.885,2.215-6.021,2.338-6.407c0.07-0.223,0.152-0.334,0.246-0.334c0.158,0,0.402,0.015,0.733,0.044
		s0.579,0.044,0.743,0.044c0.158,0,0.391-0.01,0.698-0.031s0.538-0.031,0.69-0.031c0.111,0,0.214,0.097,0.308,0.29
		c0.287,0.615,1.125,2.725,2.514,6.328C92.521,23.471,93.219,25.363,93.219,25.521z M86.987,17.514
		c-0.123,0.258-0.331,0.817-0.624,1.679c-0.316,0.914-0.475,1.45-0.475,1.608c0,0.105,0.176,0.164,0.527,0.176
		c0.182,0.012,0.48,0.018,0.896,0.018c0.387,0,0.601-0.047,0.642-0.141c0.012-0.029,0.018-0.07,0.018-0.123
		c0-0.193-0.135-0.727-0.404-1.6C87.304,18.288,87.11,17.749,86.987,17.514z"/>
	<path d="M107.22,25.469c0,0.182-0.085,0.272-0.255,0.272h-3.111c-0.17,0-0.255-0.103-0.255-0.308c0-0.592,0.021-1.479,0.065-2.663
		s0.066-2.072,0.066-2.664c0-0.17-0.026-0.261-0.079-0.272c-0.064,0.035-0.457,0.94-1.178,2.716
		c-0.422,1.043-0.844,2.083-1.266,3.12c-0.059,0.135-0.132,0.214-0.22,0.237c-0.029,0.006-0.146,0.009-0.352,0.009
		c-0.305,0-0.486-0.059-0.545-0.176c-0.316-0.645-0.732-1.582-1.248-2.813c-0.551-1.301-0.964-2.242-1.239-2.822
		c-0.012-0.029-0.038-0.062-0.079-0.097c-0.041,0.053-0.062,0.138-0.062,0.255c0,0.574,0.015,1.436,0.044,2.584
		s0.044,2.01,0.044,2.584c0,0.205-0.082,0.308-0.246,0.308H94.37c-0.117,0-0.189-0.02-0.216-0.058s-0.039-0.104-0.039-0.197
		c0-0.639,0.03-1.599,0.092-2.879s0.093-2.24,0.093-2.878c0-0.68-0.029-1.954-0.088-3.823c-0.006-0.486-0.032-1.21-0.079-2.171
		l-0.009-0.149c-0.006-0.117,0.117-0.176,0.369-0.176c0.322,0,0.806-0.01,1.45-0.031s1.128-0.031,1.45-0.031
		c0.064,0,0.155,0.123,0.272,0.369l2.566,5.634c0.182,0.381,0.334,0.571,0.457,0.571c0.064,0,0.202-0.22,0.413-0.659
		c0.592-1.23,1.468-3.085,2.628-5.563c0.1-0.229,0.208-0.343,0.325-0.343c0.17,0,0.426,0.009,0.769,0.026s0.603,0.026,0.778,0.026
		c0.146,0,0.37-0.015,0.672-0.044s0.526-0.044,0.673-0.044c0.176,0,0.264,0.07,0.264,0.211c0,0.691-0.025,1.724-0.075,3.098
		s-0.074,2.407-0.074,3.098c0,0.639,0.026,1.597,0.079,2.875S107.22,24.836,107.22,25.469z"/>
	<path d="M117.854,23.008c0,0.252-0.05,0.715-0.149,1.389c-0.105,0.732-0.199,1.169-0.281,1.31c-0.07,0.111-0.167,0.167-0.29,0.167
		c-0.053,0-0.141-0.009-0.264-0.026c-0.428-0.059-1.676-0.088-3.744-0.088c-0.451,0-1.122-0.003-2.013-0.009
		s-1.559-0.009-2.004-0.009c-0.193,0-0.29-0.085-0.29-0.255c0-0.656,0.036-1.643,0.109-2.958s0.11-2.301,0.11-2.958
		c0-0.668-0.035-1.913-0.105-3.735c-0.018-0.469-0.05-1.169-0.097-2.101l-0.009-0.123c-0.012-0.135,0.062-0.202,0.22-0.202
		c0.434,0,1.085,0.012,1.955,0.035s1.522,0.035,1.956,0.035c0.428,0,1.072-0.012,1.934-0.035s1.506-0.035,1.934-0.035
		c0.305,0,0.48,0.114,0.527,0.343c0.029,0.135,0.074,0.543,0.136,1.226s0.093,1.097,0.093,1.244c0,0.123-0.059,0.185-0.176,0.185
		c-0.035,0-0.097-0.003-0.185-0.009c-1.559-0.129-2.959-0.193-4.201-0.193c-0.311,0-0.501,0.073-0.571,0.22
		c-0.029,0.07-0.044,0.296-0.044,0.677c0,0.398,0.059,0.662,0.176,0.791c0.1,0.111,0.29,0.167,0.571,0.167
		c0.059,0,0.173-0.004,0.343-0.013s0.311-0.013,0.422-0.013c0.738,0,1.485-0.021,2.241-0.062c0.064-0.006,0.226-0.021,0.483-0.044
		c0.199-0.023,0.357-0.035,0.475-0.035c0.141,0,0.211,0.067,0.211,0.202c0-0.123-0.053,0.325-0.158,1.345
		c-0.047,0.469-0.07,0.938-0.07,1.406c0,0.117-0.085,0.176-0.255,0.176l-0.791-0.088c-0.334-0.035-1.096-0.053-2.285-0.053h-0.932
		c-0.24,0-0.381,0.059-0.422,0.176c-0.006,0.029-0.009,0.211-0.009,0.545c0,0.445,0.029,0.732,0.088,0.861
		c0.1,0.223,0.475,0.354,1.125,0.396c-0.012,0,0.416,0,1.283,0c0.311,0,0.771-0.028,1.384-0.084s1.071-0.083,1.376-0.083
		C117.79,22.691,117.854,22.797,117.854,23.008z"/>
	<path d="M130.493,19.509c0,1.723-0.554,3.217-1.661,4.483c-0.979,1.131-2.353,1.726-4.122,1.784
		c-0.34,0.012-1.274,0.018-2.804,0.018c-0.287,0-0.72-0.009-1.297-0.026s-1.009-0.026-1.296-0.026c-0.17,0-0.255-0.067-0.255-0.202
		c0-0.645,0.024-1.613,0.074-2.905s0.075-2.26,0.075-2.905c0-0.674-0.025-1.683-0.075-3.028s-0.074-2.351-0.074-3.019
		c0-0.123,0.085-0.196,0.255-0.22c0.416-0.047,1.099-0.07,2.048-0.07c1.805,0,2.974,0.026,3.507,0.079
		c1.389,0.141,2.476,0.492,3.261,1.055c0.738,0.527,1.321,1.266,1.749,2.215C130.288,17.637,130.493,18.56,130.493,19.509z
		 M127.127,19.509c0-0.99-0.296-1.799-0.888-2.426c-0.598-0.65-1.389-0.976-2.373-0.976c-0.902,0-1.354,0.12-1.354,0.36
		c0,0.346-0.006,0.866-0.018,1.56s-0.018,1.214-0.018,1.56c0,0.34,0.006,0.851,0.018,1.534s0.018,1.197,0.018,1.543
		c0,0.252,0.469,0.378,1.406,0.378c1.014,0,1.811-0.337,2.391-1.011C126.854,21.394,127.127,20.552,127.127,19.509z"/>
	<path d="M142.35,21.698c0,1.189-0.501,2.209-1.503,3.059c-0.879,0.75-1.948,1.228-3.208,1.433
		c-0.047,0.006-0.085,0.009-0.114,0.009c-0.135,0-0.434-0.412-0.896-1.235s-0.694-1.325-0.694-1.507
		c0-0.064,0.044-0.105,0.132-0.123c0.85-0.193,1.412-0.357,1.688-0.492c0.609-0.305,0.914-0.756,0.914-1.354
		c0-0.381-0.199-0.806-0.598-1.275c-0.691-0.797-1.066-1.239-1.125-1.327c-0.404-0.609-0.606-1.283-0.606-2.021
		c0-1.072,0.495-1.963,1.485-2.672c0.809-0.586,1.802-0.967,2.979-1.143c0.064-0.006,0.114-0.009,0.149-0.009
		c0.088,0,0.158,0.07,0.211,0.211c0.152,0.428,0.507,1.201,1.063,2.32c0.018,0.035,0.026,0.064,0.026,0.088
		c0,0.1-0.053,0.149-0.158,0.149c-0.047,0-0.126-0.009-0.237-0.026s-0.196-0.026-0.255-0.026c-0.422,0-0.791,0.097-1.107,0.29
		c-0.381,0.223-0.571,0.533-0.571,0.932c0,0.357,0.211,0.797,0.633,1.318c0.744,0.938,1.134,1.43,1.169,1.477
		C142.142,20.417,142.35,21.06,142.35,21.698z"/>
	<path d="M155.401,25.521c0,0.105-0.073,0.179-0.22,0.22c-0.176,0.047-0.721,0.07-1.635,0.07c-0.838,0-1.377-0.023-1.617-0.07
		c-0.199-0.041-0.325-0.173-0.378-0.396c-0.199-0.844-0.354-1.295-0.466-1.354c-0.094-0.041-0.879-0.062-2.355-0.062
		c-0.996,0-1.526,0.026-1.591,0.079c-0.1,0.094-0.211,0.407-0.334,0.94c-0.111,0.486-0.246,0.75-0.404,0.791
		c-0.199,0.047-0.867,0.07-2.004,0.07c-0.896,0-1.345-0.085-1.345-0.255c0-0.152,0.662-2.024,1.986-5.617
		c1.436-3.885,2.215-6.021,2.338-6.407c0.07-0.223,0.152-0.334,0.246-0.334c0.158,0,0.402,0.015,0.733,0.044
		s0.579,0.044,0.743,0.044c0.158,0,0.391-0.01,0.698-0.031s0.538-0.031,0.69-0.031c0.111,0,0.214,0.097,0.308,0.29
		c0.287,0.615,1.125,2.725,2.514,6.328C154.704,23.471,155.401,25.363,155.401,25.521z M149.17,17.514
		c-0.123,0.258-0.331,0.817-0.624,1.679c-0.316,0.914-0.475,1.45-0.475,1.608c0,0.105,0.176,0.164,0.527,0.176
		c0.182,0.012,0.48,0.018,0.896,0.018c0.387,0,0.601-0.047,0.642-0.141c0.012-0.029,0.018-0.07,0.018-0.123
		c0-0.193-0.135-0.727-0.404-1.6C149.486,18.288,149.293,17.749,149.17,17.514z"/>
	<path d="M159.866,19.246c0,0.691,0.018,1.731,0.053,3.121c0.035,1.389,0.053,2.429,0.053,3.12c0,0.117-0.026,0.19-0.079,0.22
		c-0.012,0.006-0.088,0.018-0.229,0.035c-0.381,0.047-0.891,0.07-1.529,0.07c-0.855,0-1.4-0.023-1.635-0.07
		c-0.17-0.035-0.255-0.126-0.255-0.272c0,0.094,0.026-0.422,0.079-1.547c0.105-2.373,0.158-3.932,0.158-4.676
		c0-0.627-0.021-1.567-0.062-2.821s-0.062-2.194-0.062-2.821c0-0.129,0.067-0.193,0.202-0.193c0.182,0,0.455,0.009,0.821,0.026
		s0.641,0.026,0.822,0.026s0.449-0.009,0.804-0.026s0.623-0.026,0.805-0.026c0.17,0,0.255,0.064,0.255,0.193
		c0,0.627-0.034,1.567-0.102,2.821S159.866,18.619,159.866,19.246z"/>
	<path d="M170.659,23.008c0,0.252-0.05,0.715-0.149,1.389c-0.105,0.732-0.199,1.169-0.281,1.31c-0.07,0.111-0.167,0.167-0.29,0.167
		c-0.053,0-0.141-0.009-0.264-0.026c-0.428-0.059-1.676-0.088-3.744-0.088c-0.451,0-1.122-0.003-2.013-0.009
		s-1.559-0.009-2.004-0.009c-0.193,0-0.29-0.085-0.29-0.255c0-0.656,0.036-1.643,0.109-2.958s0.11-2.301,0.11-2.958
		c0-0.668-0.035-1.913-0.105-3.735c-0.018-0.469-0.05-1.169-0.097-2.101l-0.009-0.123c-0.012-0.135,0.062-0.202,0.22-0.202
		c0.434,0,1.085,0.012,1.955,0.035s1.522,0.035,1.956,0.035c0.428,0,1.072-0.012,1.934-0.035s1.506-0.035,1.934-0.035
		c0.305,0,0.48,0.114,0.527,0.343c0.029,0.135,0.074,0.543,0.136,1.226s0.093,1.097,0.093,1.244c0,0.123-0.059,0.185-0.176,0.185
		c-0.035,0-0.097-0.003-0.185-0.009c-1.559-0.129-2.959-0.193-4.201-0.193c-0.311,0-0.501,0.073-0.571,0.22
		c-0.029,0.07-0.044,0.296-0.044,0.677c0,0.398,0.059,0.662,0.176,0.791c0.1,0.111,0.29,0.167,0.571,0.167
		c0.059,0,0.173-0.004,0.343-0.013s0.311-0.013,0.422-0.013c0.738,0,1.485-0.021,2.241-0.062c0.064-0.006,0.226-0.021,0.483-0.044
		c0.199-0.023,0.357-0.035,0.475-0.035c0.141,0,0.211,0.067,0.211,0.202c0-0.123-0.053,0.325-0.158,1.345
		c-0.047,0.469-0.07,0.938-0.07,1.406c0,0.117-0.085,0.176-0.255,0.176l-0.791-0.088c-0.334-0.035-1.096-0.053-2.285-0.053h-0.932
		c-0.24,0-0.381,0.059-0.422,0.176c-0.006,0.029-0.009,0.211-0.009,0.545c0,0.445,0.029,0.732,0.088,0.861
		c0.1,0.223,0.475,0.354,1.125,0.396c-0.012,0,0.416,0,1.283,0c0.311,0,0.771-0.028,1.384-0.084s1.071-0.083,1.376-0.083
		C170.595,22.691,170.659,22.797,170.659,23.008z"/>
	<path d="M183.298,19.509c0,1.723-0.554,3.217-1.661,4.483c-0.979,1.131-2.353,1.726-4.122,1.784
		c-0.34,0.012-1.274,0.018-2.804,0.018c-0.287,0-0.72-0.009-1.297-0.026s-1.009-0.026-1.296-0.026c-0.17,0-0.255-0.067-0.255-0.202
		c0-0.645,0.024-1.613,0.074-2.905s0.075-2.26,0.075-2.905c0-0.674-0.025-1.683-0.075-3.028s-0.074-2.351-0.074-3.019
		c0-0.123,0.085-0.196,0.255-0.22c0.416-0.047,1.099-0.07,2.048-0.07c1.805,0,2.974,0.026,3.507,0.079
		c1.389,0.141,2.476,0.492,3.261,1.055c0.738,0.527,1.321,1.266,1.749,2.215C183.093,17.637,183.298,18.56,183.298,19.509z
		 M179.932,19.509c0-0.99-0.296-1.799-0.888-2.426c-0.598-0.65-1.389-0.976-2.373-0.976c-0.902,0-1.354,0.12-1.354,0.36
		c0,0.346-0.006,0.866-0.018,1.56s-0.018,1.214-0.018,1.56c0,0.34,0.006,0.851,0.018,1.534s0.018,1.197,0.018,1.543
		c0,0.252,0.469,0.378,1.406,0.378c1.014,0,1.811-0.337,2.391-1.011C179.659,21.394,179.932,20.552,179.932,19.509z"/>
</g>
</svg>
